<svg width="576" height="512" viewBox="0 0 576 512" fill="none" xmlns="http://www.w3.org/2000/svg">
<g clip-path="url(#clip0)">
<path d="M480 192H365.71L260.61 8.06C259.209 5.61107 257.185 3.5759 254.744 2.16053C252.303 0.74515 249.532 -0.000176927 246.71 3.15032e-08L181.21 3.15032e-08C170.58 3.15032e-08 162.91 10.17 165.83 20.39L214.86 192H112L68.8 134.4C65.78 130.37 61.03 128 56 128H16.01C5.6 128 -2.04 137.78 0.490003 147.88L32 256L0.490003 364.12C-2.04 374.22 5.6 384 16.01 384H56C61.04 384 65.78 381.63 68.8 377.6L112 320H214.86L165.83 491.6C162.91 501.82 170.58 512 181.21 512H246.71C252.45 512 257.75 508.92 260.6 503.94L365.71 320H480C515.35 320 576 291.35 576 256C576 220.65 515.35 192 480 192Z" fill="#2780E3"/>
</g>
<defs>
<clipPath id="clip0">
<rect width="576" height="512" fill="white"/>
</clipPath>
</defs>
</svg>
