<?xml version="1.0" standalone="no"?>
<!DOCTYPE svg PUBLIC "-//W3C//DTD SVG 20010904//EN"
 "http://www.w3.org/TR/2001/REC-SVG-20010904/DTD/svg10.dtd">
<svg version="1.0" xmlns="http://www.w3.org/2000/svg"
 width="576.000000pt" height="576.000000pt" viewBox="0 0 576.000000 576.000000"
 preserveAspectRatio="xMidYMid meet">
<metadata>
Created by potrace 1.11, written by Peter Selinger 2001-2013
</metadata>
<g transform="translate(0.000000,576.000000) scale(0.100000,-0.100000)"
fill="#000000" stroke="none">
<path d="M1755 5428 c-88 -32 -118 -117 -85 -238 7 -25 12 -47 12 -50 0 -3 4
-12 9 -21 4 -9 10 -27 12 -40 3 -13 12 -46 20 -74 16 -52 53 -177 67 -230 5
-16 15 -52 24 -80 9 -27 18 -59 21 -70 2 -11 13 -51 24 -90 11 -38 36 -128 56
-200 19 -71 40 -141 45 -155 6 -14 12 -36 15 -50 3 -13 14 -55 25 -92 28 -96
57 -195 71 -248 16 -59 16 -57 33 -117 9 -29 22 -75 30 -103 l14 -50 -51 0
c-29 0 -61 0 -72 -1 -73 0 -172 0 -185 0 -60 2 -102 1 -108 -3 -5 -3 -14 -1
-21 3 -7 5 -30 5 -52 1 -22 -4 -41 -4 -44 0 -2 4 -25 4 -50 0 -25 -4 -45 -4
-45 -1 0 3 -24 5 -52 4 -29 -1 -62 -3 -73 -3 -23 -1 -173 -2 -192 -1 -91 3
-65 -23 -307 300 -123 163 -235 305 -249 314 -15 10 -53 20 -84 23 -32 3 -64
7 -70 9 -7 3 -13 0 -13 -6 0 -6 -4 -8 -9 -5 -7 5 -212 10 -231 6 -3 0 -35 -2
-71 -3 -55 -2 -73 -8 -104 -31 -46 -35 -65 -79 -60 -137 2 -24 33 -145 70
-269 37 -124 68 -229 69 -235 2 -5 9 -30 16 -55 16 -52 14 -45 24 -90 5 -19
11 -39 15 -45 3 -5 6 -12 7 -15 3 -15 20 -77 46 -165 16 -55 38 -131 48 -168
21 -78 26 -51 -75 -392 -40 -133 -59 -202 -89 -310 -2 -5 -6 -17 -9 -25 -7
-16 -35 -115 -42 -146 -2 -11 -23 -82 -45 -159 -50 -170 -49 -206 9 -264 41
-41 66 -49 142 -47 27 0 49 -1 49 -4 0 -3 26 -4 57 -2 32 1 74 2 93 2 19 -1
42 -1 50 -1 23 1 110 1 118 0 4 -1 9 -1 12 1 3 1 15 3 28 6 12 2 34 11 47 20
23 15 95 97 95 108 0 3 7 14 16 24 9 9 63 80 121 157 57 77 113 150 124 163
10 12 19 24 19 27 0 3 23 35 51 71 49 62 54 65 90 63 21 -2 41 -1 43 2 3 3 25
3 48 -1 24 -3 62 -3 86 1 23 3 44 3 47 0 2 -4 31 -4 64 -1 34 3 61 3 61 0 0
-3 50 -5 110 -5 61 0 110 3 110 6 0 3 23 3 50 -1 28 -4 50 -3 50 0 0 4 20 4
43 0 24 -3 52 -3 63 0 10 4 30 4 44 0 14 -4 39 -3 56 0 18 4 38 4 45 0 7 -5
18 -6 26 -3 7 3 19 3 27 0 12 -5 12 -13 -1 -54 -24 -79 -64 -217 -67 -233 -1
-8 -5 -22 -8 -30 -6 -17 -57 -193 -63 -219 -2 -9 -11 -38 -19 -66 -24 -83
-159 -556 -203 -710 -14 -49 -26 -94 -27 -100 -2 -5 -10 -36 -20 -67 -10 -32
-16 -59 -15 -60 1 -2 -6 -20 -14 -41 -9 -20 -14 -37 -12 -37 2 0 -4 -24 -14
-52 -22 -68 -20 -126 8 -171 45 -74 33 -72 449 -75 332 -3 376 -1 407 14 38
18 69 58 130 169 22 39 44 73 49 77 6 4 7 8 3 8 -4 0 4 17 18 37 14 21 25 43
25 49 0 7 4 14 8 16 4 2 23 30 41 63 42 74 57 100 130 227 10 18 30 53 45 78
15 25 29 53 33 63 3 9 10 17 15 17 5 0 7 4 3 9 -3 5 2 16 10 24 8 9 15 18 15
21 0 3 18 35 40 71 22 36 40 69 40 74 0 4 8 19 18 32 10 13 32 49 48 79 16 30
31 57 35 60 3 3 18 31 34 63 16 31 33 57 37 57 4 0 8 6 8 13 0 7 13 33 28 58
16 24 45 74 65 112 21 37 58 101 82 143 25 42 45 77 45 79 0 3 25 45 55 96 30
50 55 95 55 99 0 12 31 16 75 10 22 -3 75 -3 117 0 42 3 87 2 100 -1 13 -3 40
-2 60 1 20 4 42 4 48 0 6 -4 29 -4 51 0 22 4 41 4 44 0 2 -4 25 -4 50 0 25 4
45 4 45 1 0 -3 24 -5 52 -4 87 4 90 4 180 3 48 -1 92 1 97 4 5 4 12 3 15 -2 2
-4 32 -5 65 -2 34 3 61 2 61 -2 0 -4 6 -5 13 -3 6 2 53 6 102 9 89 5 108 7
175 21 43 9 51 11 70 18 8 3 47 15 85 28 159 50 346 161 453 269 66 66 128
156 134 195 2 11 7 25 10 31 4 6 6 44 4 85 -2 60 -9 87 -35 140 -72 147 -244
285 -484 387 -97 42 -122 50 -245 78 -100 22 -259 33 -282 19 -5 -3 -11 -2
-14 3 -2 4 -32 5 -65 2 -34 -3 -61 -3 -61 0 0 5 -105 4 -268 -3 -34 -1 -62 0
-62 3 0 4 -27 4 -125 0 -11 -1 -38 -1 -60 -1 -22 0 -47 0 -55 0 -8 0 -66 0
-128 1 -62 1 -115 1 -117 -1 -2 -2 -25 -3 -52 -1 -47 4 -50 5 -73 50 -13 26
-31 58 -40 72 -10 14 -34 57 -55 95 -20 39 -44 77 -51 86 -8 8 -14 18 -14 22
0 3 -13 28 -29 55 -33 57 -76 132 -106 187 -12 22 -37 65 -55 95 -18 30 -48
84 -68 120 -19 36 -41 72 -48 81 -8 8 -14 18 -14 21 0 4 -22 44 -48 90 -26 46
-51 90 -55 98 -4 8 -15 29 -26 45 -10 17 -28 48 -41 70 -12 22 -39 69 -60 105
-21 36 -95 166 -166 290 -70 124 -140 244 -155 266 -49 73 -59 74 -462 73
-224 0 -363 -4 -382 -11z"/>
</g>
</svg>
